{"title":"The Mechanic(DivX)(2011)(17-3-bios) (Nl subs extern) TBS","uid":6193455,"size":1566894777,"categoryP":"video","categoryS":"movies","magnet":"?xt=urn:btih:6e55a4c8a6ab1a257aa29003865f389b5b856a9a&amp;dn=The+Mechanic%28DivX%29%282011%29%2817-3-bios%29+%28Nl+subs+extern%29+TBS&amp;tr=udp%3A%2F%2Ftracker.openbittorrent.com%3A80&amp;tr=udp%3A%2F%2Fopen.demonii.com%3A1337&amp;tr=udp%3A%2F%2Ftracker.coppersurfer.tk%3A6969&amp;tr=udp%3A%2F%2Fexodus.desync.com%3A6969","seeders":0,"leechers":0,"uploader":"Vlinder.","files":-1,"time":1298373158,"description":"The Mechanic(DivX)(2011)(17-3-bios) Nl subs)  TBS\n\n\n\n\n**************Vanaf 17 maart in de bioscoop****************** \n\n\nVerenigde Staten\nActie / Drama\n92 minuten\n\ngeregisseerd door Simon West\nmet Jason Statham, Ben Foster en Donald Sutherland\n\nNa jarenlang een meester in zijn vak geweest te zijn wil een gepensioneerde huurmoordenaar (Jason Statham), bijgenaamd 'The Mechanic', niets anders dan rust. Wanneer de vader van Steve McKenna (Ben Foster) vermoord wordt, vraagt Steve echter om zijn hulp en wil hij dat 'The Mechanic' hem de kneepjes van het vak leert, zodat hij uiteindelijk de dood van zijn vader kan wreken.\n\nStoryline\n\nArthur Bishop (Jason Statham) is a 'mechanic' - an elite assassin with a strict code and unique talent for cleanly eliminating targets. It's a job that requires professional perfection and total detachment, and Bishop is the best in the business. But when his mentor and close friend Harry (Donald Sutherland) is murdered, Bishop is anything but detached. His next assignment is self-imposed - he wants those responsible dead. His mission grows complicated when Harry's son Steve (Ben Foster) approaches him with the same vengeful goal and a determination to learn Bishop's trade. Bishop has always acted alone but he can't turn his back on Harry's son. A methodical hit man takes an impulsive student deep into his world and a deadly partnership is born. But while in pursuit of their ultimate mark, deceptions threaten to surface and those hired to fix problems become problems themselves.\n\nSOURCE..........: The Mechanic 2011 R5 LiNE AC3-T0XiC-iNK \nSIZE............: 1.45GB\nFORM............: AVI\nVIDEO CODEC.....: XVID \nBITRATE.........: 1908 Kbit/s\nWIDTH &amp; HEIGHT..: 720 X 328\nFRAMES/S........: 25.000 Fps\nAUDIO...........: English\nAUDIO CODE......: AC3\nBITRATE.........: 448kbps\nCHANNELS........: 5\nSAMPLING........: 48.0 kHz\nSubtitles.......: Dutch srt\nVertaling.......: SRT\nCategorie.......: Beeld \nFormaat.........: DivX \nBron............: R5\nSubs............: Dutch (lossles) \nOndertitels.....: Nederlands (extern)\nThanks..........: Hannes3 \n\nNOTES:: T0XiC-iNK is proud to present The Mechanic R5, 5.1 using our LiNE and genuine russian\nsurround channels. Enjoy\n\n\n\nGeneral\n\nFormat                           : DivX\nFormat/Info                      : Hack of AVI\nFile size                        : 1.46 GiB\nDuration                         : 1h 28mn\nOverall bit rate                 : 2 357 Kbps\n\nVideo\nID                               : 0\nFormat                           : MPEG-4 Visual\nFormat profile                   : Advanced Simple@L5\nFormat settings, BVOP            : Yes\nFormat settings, QPel            : No\nFormat settings, GMC             : No warppoints\nFormat settings, Matrix          : Default (H.263)\nMuxing mode                      : Packed bitstream\nCodec ID                         : DX50\nCodec ID/Hint                    : DivX 5\nDuration                         : 1h 28mn\nBit rate                         : 1 899 Kbps\nWidth                            : 720 pixels\nHeight                           : 328 pixels\nDisplay aspect ratio             : 2.2:1\nFrame rate                       : 25.000 fps\nColor space                      : YUV\nChroma subsampling               : 4:2:0\nBit depth                        : 8 bits\nScan type                        : Progressive\nBits/(Pixel*Frame)               : 0.322\nStream size                      : 1.17 GiB (81%)\nTitle                            : Video \nWriting library                  : XviD 1.2.1 (UTC 2008-12-04)\n\nAudio\nID                               : 1\nFormat                           : AC-3\nFormat/Info                      : Audio Coding 3\nMode extension                   : CM (complete main)\nCodec ID                         : 2000\nDuration                         : 1h 28mn\nBit rate mode                    : Constant\nBit rate                         : 448 Kbps\nChannel(s)                       : 6 channels\nChannel positions                : Front: L C R, Side: L R, LFE\nSampling rate                    : 48.0 KHz\nBit depth                        : 16 bits\nStream size                      : 284 MiB (19%)\nAlignment                        : Split accross interleaves\nInterleave, duration             : 40 ms (1.00 video frame)\nInterleave, preload duration     : 500 ms\nTitle                            : Audio \n\n\n\n  \n  &lt;a href=&quot;\nhttp://www.moviemeter.nl/film/60850&quot; rel=&quot;nofollow&quot; target=&quot;_NEW&quot;&gt;\nhttp://www.moviemeter.nl/film/60850&lt;/a&gt;  &lt;a href=&quot;\nhttp://www.imdb.com/title/tt0472399&quot; rel=&quot;nofollow&quot; target=&quot;_NEW&quot;&gt;\nhttp://www.imdb.com/title/tt0472399&lt;/a&gt;\n ","torrent":{"xt":"urn:btih:6e55a4c8a6ab1a257aa29003865f389b5b856a9a","amp;dn":"The+Mechanic%28DivX%29%282011%29%2817-3-bios%29+%28Nl+subs+extern%29+TBS","amp;tr":["udp%3A%2F%2Ftracker.openbittorrent.com%3A80","udp%3A%2F%2Fopen.demonii.com%3A1337","udp%3A%2F%2Ftracker.coppersurfer.tk%3A6969","udp%3A%2F%2Fexodus.desync.com%3A6969"],"infoHash":"6e55a4c8a6ab1a257aa29003865f389b5b856a9a","infoHashBuffer":{"type":"Buffer","data":[110,85,164,200,166,171,26,37,122,162,144,3,134,95,56,155,91,133,106,154]},"announce":[],"urlList":[]}}